<svg id="Capa_1" enable-background="new 0 0 512.009 512.009" height="512" viewBox="0 0 512.009 512.009" width="512" xmlns="http://www.w3.org/2000/svg"><path d="m301.002 511.999h-90v-45c0-52.805-39.183-96.631-90-103.932v43.747l-120.996-89.815 120.997-89.815v45.398c32.07 2.496 62.946 12.957 90 30.371v-188.951h-46.209l91.208-114.002 91.209 114.002h-46.209v68.951c27.054-17.415 57.93-27.876 90-30.371v-45.397l121.001 89.815-121.001 89.814v-43.746c-50.817 7.301-90 51.127-90 103.932z"/><path d="m361.002 362.009h30v30h-30z"/><path d="m421.002 362.009h91v30h-91z"/><path d="m361.002 422.009h30v30h-30z"/><path d="m421.002 422.009h91v30h-91z"/><path d="m361.002 482.009h30v30h-30z"/><path d="m421.002 482.009h91v30h-91z"/></svg>